Description


Poster: http://cdn.piczend.com/image/srqbtfecmibcj2nqqlbqwv3ew.jpeg
Release date: 2012
Genre: Action, Adventure, Thriller
Plot: Mr. Church reunites the Expendables for what should be an easy paycheck, but when one of their men is murdered on the job, their quest for revenge puts them deep in enemy territory and up against an unexpected threat.
--------------------------------
Runtime: 1 h 43 min
Rating: 6.9/10
Votes: 121,826
Writer(s)/Director(s): Richard Wenk, Sylvester Stallone/Simon West
Actors: Sylvester Stallone, Liam Hemsworth, Randy Couture, Jean-Claude Van Damme
Trailer: http://www.imdb.com/video/imdb/vi2277549337/

Screenshots: 
http://cdn.piczend.com/image/uwwpgvf9bxb2jzasw8mofgtqr.jpeg 
http://cdn.piczend.com/image/ibwyycivpxracqc0r59g5r344.jpeg 
http://cdn.piczend.com/image/i9arqszhenghwrwtixmz0cgvc.jpeg 
http://cdn.piczend.com/image/dru7mofmpxsxnac179npw6xjj.jpeg

Mediainfo:
General
Complete name :	The Expendables 2 (2012) BRRip 800p [Zend]/The Expendables 2 (2012) BRRip 800p [Zend].mp4
Format :	MPEG-4
Format profile :	Base Media
Codec ID :	isom
File size :	2.17 GiB
Duration :	1h 44mn
Overall bit rate :	2 992 Kbps
Writing application :	Lavf53.21.1

Video
ID :	1
Format :	AVC
Format/Info :	Advanced Video Codec
Format profile :	Main@L4.0
Format settings, CABAC :	Yes
Format settings, ReFrames :	3 frames
Codec ID :	avc1
Codec ID/Info :	Advanced Video Coding
Duration :	1h 44mn
Bit rate :	1 500 Kbps
Width :	1 920 pixels
Height :	800 pixels
Display aspect ratio :	2.40:1
Frame rate mode :	Constant
Frame rate :	23.976 fps
Color space :	YUV
Chroma subsampling :	4:2:0
Bit depth :	8 bits
Scan type :	Progressive
Bits/(Pixel*Frame) :	0.041
Stream size :	1.07 GiB (49%)
Writing library :	x264 core 123 r2189 35cf912
Encoding settings :	cabac=1 / ref=3 / deblock=1:0:0 / analyse=0x1:0x111 / me=hex / subme=7 / psy=1 / psy_rd=1.00:0.00 / mixed_ref=0 / me_range=16 / chroma_me=1 / trellis=1 / 8x8dct=0 / cqm=0 / deadzone=21,11 / fast_pskip=1 / chroma_qp_offset=-2 / threads=6 / sliced_threads=0 / nr=0 / decimate=1 / interlaced=0 / bluray_compat=0 / constrained_intra=0 / bframes=3 / b_pyramid=0 / b_adapt=1 / b_bias=0 / direct=1 / weightb=0 / open_gop=1 / weightp=2 / keyint=250 / keyint_min=23 / scenecut=40 / intra_refresh=0 / rc_lookahead=40 / rc=abr / mbtree=1 / bitrate=1500 / ratetol=1.0 / qcomp=0.60 / qpmin=0 / qpmax=69 / qpstep=4 / ip_ratio=1.25 / aq=1:1.00
Language :	English

Audio
ID :	2
Format :	DTS
Format/Info :	Digital Theater Systems
Codec ID :	A9
Duration :	1h 44mn
Bit rate mode :	Constant
Bit rate :	1 510 Kbps
Channel(s) :	6 channels
Channel positions :	Front: L C R, Side: L R, LFE
Sampling rate :	48.0 KHz
Bit depth :	24 bits
Compression mode :	Lossy
Delay relative to video :	42ms
Stream size :	1.10 GiB (50%)
Language :	English

Menu
00:00:00.000 :	00:00:00.000
00:07:49.677 :	00:07:49.677
00:09:52.578 :	00:09:52.578
00:17:54.559 :	00:17:54.559
00:24:44.010 :	00:24:44.010
00:28:32.363 :	00:28:32.363
00:39:05.120 :	00:39:05.120
00:48:41.780 :	00:48:41.780
00:54:22.787 :	00:54:22.787
00:59:26.229 :	00:59:26.229
01:04:20.384 :	01:04:20.384
01:07:04.715 :	01:07:04.715
01:13:30.225 :	01:13:30.225
01:20:05.495 :	01:20:05.495
01:28:14.817 :	01:28:14.817
01:31:12.244 :	01:31:12.244
01:42:28.712 :	01:42:28.712
